# xmcd
# Track frame offsets:
# 150
# 20029
# 40893
# 62058
# 84252
# 100567
# 113345
# 121987
# 140433
# 156882
# 169482
#
# Disc length: 2381 seconds
# Revision: 0
# Processed by: cddbd v1.5.2PL0 Copyright (c) Steve Scherf et al.
# Submitted via: VisiTrax 2.11.3.279 - For more info visit www.synapsa.com
#
DISCID=86094b0b
DTITLE=Verteramo Trío - Verteramo Trío
DYEAR=2018
DGENRE=
TTITLE0=Don't Say That No More
TTITLE1=Got A Rocket In My Pocket\t4:38\tVerteramo Trío\tVerteramo Trío\tBlue
TTITLE1=s\nI Got A Rocket In My Pocket\t4:38\tVerteramo Trío\tVerteramo Trío\tBlue
TTITLE1=s\nI Got A Rocket In My Pocket
TTITLE2=Mean Old Train
TTITLE3=Big Legged Woman
TTITLE4=Honky Tonk Women
TTITLE5=Letter For My Girlfriend
TTITLE6=Don't Lose Your Cool
TTITLE7=Night Time Is The Right Time
TTITLE8=I'm Going Upside Your Head
TTITLE9=Sleeping In The Ground
TTITLE10=Mala Suerte Amigo
EXTD=
EXTT0=
EXTT1=
EXTT2=
EXTT3=
EXTT4=
EXTT5=
EXTT6=
EXTT7=
EXTT8=
EXTT9=
EXTT10=
PLAYORDER=
